# xmcd
#
# Track frame offsets:
#	150
#	19155
#	32696
#	54429
#	69430
#	90026
#	113129
#	128239
#	144661
#	162055
#
# Disc length: 2444 seconds
# Revision: 0
# Processed by: cddbd v1.5.2PL0 Copyright (c) Steve Scherf et al.
# Submitted via: dBpowerAMP V12.0
#
DISCID=77098a0a
DTITLE=The Steel Wheels - Wild As We Came Here
DYEAR=2017
DGENRE=Americana
TTITLE0=To The Wild
TTITLE1=Scrape Me Off The Ceiling
TTITLE2=Wild As We Came Here
TTITLE3=Sing Me Like A Folk Song
TTITLE4=Broken Mandolin
TTITLE5=Hold On
TTITLE6=Heartbeat
TTITLE7=Ghost Of Myself
TTITLE8=Take Me To The Ending
TTITLE9=Till No One Is Free
EXTD=
EXTT0=
EXTT1=
EXTT2=
EXTT3=
EXTT4=
EXTT5=
EXTT6=
EXTT7=
EXTT8=
EXTT9=
PLAYORDER=
